<svg width="800" height="48" viewBox="0 0 800 48" xmlns="http://www.w3.org/2000/svg">
    
  <defs>
    <radialGradient id="glow" cx="50%" cy="100%" r="60%"><stop offset="0%" stop-color="rgba(74,222,128,0.06)" /><stop offset="100%" stop-color="transparent" /></radialGradient>
    <linearGradient id="grad-trees" x1="0" x2="1" y1="0" y2="0"><stop offset="0%" stop-color="#166534"/><stop offset="100%" stop-color="#22c55e"/></linearGradient>
    <linearGradient id="grad-co2" x1="0" x2="1" y1="0" y2="0"><stop offset="0%" stop-color="#1e3a5f"/><stop offset="100%" stop-color="#38bdf8"/></linearGradient>
    <linearGradient id="grad-renew" x1="0" x2="1" y1="0" y2="0"><stop offset="0%" stop-color="#713f12"/><stop offset="100%" stop-color="#eab308"/></linearGradient>
    <linearGradient id="grad-ocean" x1="0" x2="1" y1="0" y2="0"><stop offset="0%" stop-color="#164e63"/><stop offset="100%" stop-color="#06b6d4"/></linearGradient>
    <linearGradient id="grad-air" x1="0" x2="1" y1="0" y2="0"><stop offset="0%" stop-color="#3b0764"/><stop offset="100%" stop-color="#a855f7"/></linearGradient>
    <linearGradient id="grad-wild" x1="0" x2="1" y1="0" y2="0"><stop offset="0%" stop-color="#7c2d12"/><stop offset="100%" stop-color="#f97316"/></linearGradient>
    <filter id="soft-glow"><feGaussianBlur stdDeviation="2" result="blur" /><feMerge><feMergeNode in="blur" /><feMergeNode in="SourceGraphic" /></feMerge></filter>
    <style>
      .serif { font-family: 'DM Serif Display', serif; }
      .mono { font-family: 'IBM Plex Mono', monospace; }
      .text-dim { fill: #5a6e60; }
      .text-accent { fill: #4ade80; }
      .text-base { fill: #c8d6ce; }
      .card-bg { fill: #0f1512; stroke: rgba(74, 222, 128, 0.08); stroke-width: 1px; }
    </style>
  </defs>

    
    <rect width="800" height="48" rx="8" class="card-bg" />
    <g transform="translate(32, 28)">
  <g transform="translate(0, 0)">
        <rect width="18" height="4" fill="#22c55e" rx="2" y="-4" />
        <text x="26" y="0" class="mono text-dim" font-size="10">Excellent</text>
      </g><g transform="translate(140, 0)">
        <rect width="18" height="4" fill="#84cc16" rx="2" y="-4" />
        <text x="26" y="0" class="mono text-dim" font-size="10">Good</text>
      </g><g transform="translate(280, 0)">
        <rect width="18" height="4" fill="#eab308" rx="2" y="-4" />
        <text x="26" y="0" class="mono text-dim" font-size="10">Moderate</text>
      </g><g transform="translate(420, 0)">
        <rect width="18" height="4" fill="#f97316" rx="2" y="-4" />
        <text x="26" y="0" class="mono text-dim" font-size="10">Below Avg</text>
      </g><g transform="translate(560, 0)">
        <rect width="18" height="4" fill="#a16207" rx="2" y="-4" />
        <text x="26" y="0" class="mono text-dim" font-size="10">Poor</text>
      </g></g>
  </svg>